<?xml version="1.0" encoding="UTF-8"?>
<svg width="28px" height="29px" viewBox="0 0 28 29" version="1.1" xmlns="http://www.w3.org/2000/svg" xmlns:xlink="http://www.w3.org/1999/xlink">
    <!-- Generator: Sketch 47.1 (45422) - http://www.bohemiancoding.com/sketch -->
    <title>bell copy 2</title>
    <desc>Created with Sketch.</desc>
    <defs></defs>
    <g id="Guidelines" stroke="none" stroke-width="1" fill="none" fill-rule="evenodd">
        <g id="Menu-Patte" transform="translate(-32.000000, -410.000000)" fill-rule="nonzero" fill="#4A4A4A">
            <g id="ALERT" transform="translate(32.000000, 410.000000)">
                <g id="bell-copy-2">
                    <path d="M19.4833333,9.52297297 C19.1333333,9.28783784 18.6277778,9.40540541 18.3944444,9.75810811 C18.1611111,10.1108108 18.2777778,10.6202703 18.6277778,10.8554054 C20.0666667,11.7959459 19.7166667,15.4797297 19.4444444,16.6945946 C19.3666667,17.1256757 19.6388889,17.5175676 20.0666667,17.6351351 C20.1055556,17.6351351 20.1833333,17.6351351 20.2222222,17.6351351 C20.5722222,17.6351351 20.9222222,17.4 21,17.0081081 C21.1166667,16.4594595 22.0888889,11.2081081 19.4833333,9.52297297 Z" id="Shape"></path>
                    <path d="M24.5,19.7905405 L24.5,13.5202703 C24.5,8.62162162 21.2333333,4.31081081 16.8,3.13513514 L17.1111111,3.13513514 L17.1111111,3.13513514 C17.1111111,1.41081081 15.7111111,0 14,0 C12.2888889,0 10.8888889,1.41081081 10.8888889,3.13513514 L10.8888889,3.13513514 L11.2,3.13513514 C6.76666667,4.31081081 3.5,8.62162162 3.5,13.5202703 L3.5,19.7513514 C1.47777778,20.2608108 0,22.1027027 0,24.2972973 L0,25.0810811 L9.41111111,25.0810811 C9.8,27.3148649 11.7055556,29 14,29 C16.2944444,29 18.2388889,27.3148649 18.5888889,25.0810811 L28,25.0810811 L28,24.2972973 C28,22.1418919 26.5222222,20.3 24.5,19.7905405 Z M14,1.56756757 C14.7777778,1.56756757 15.4388889,2.15540541 15.5166667,2.9 C15.0111111,2.82162162 14.5055556,2.78243243 14,2.78243243 C13.4944444,2.78243243 12.95,2.82162162 12.4833333,2.9 C12.5611111,2.15540541 13.2222222,1.56756757 14,1.56756757 Z M14,27.4324324 C12.5222222,27.4324324 11.3166667,26.4527027 11.0055556,25.0810811 L17.0333333,25.0810811 C16.6833333,26.4527027 15.4777778,27.4324324 14,27.4324324 Z M1.67222222,23.5135135 C2.02222222,22.1810811 3.22777778,21.1621622 4.66666667,21.1621622 L5.83333333,21.1621622 C6.26111111,21.1621622 6.61111111,20.8094595 6.61111111,20.3783784 C6.61111111,19.9472973 6.26111111,19.5945946 5.83333333,19.5945946 L5.05555556,19.5945946 L5.05555556,13.5202703 C5.05555556,8.50405405 9.06111111,4.38918919 14,4.38918919 C18.9388889,4.38918919 22.9444444,8.50405405 22.9444444,13.5202703 L22.9444444,19.5945946 L21.7777778,19.5945946 C21.35,19.5945946 21,19.9472973 21,20.3783784 C21,20.8094595 21.35,21.1621622 21.7777778,21.1621622 L23.3333333,21.1621622 C24.7722222,21.1621622 26.0166667,22.1810811 26.3277778,23.5135135 L1.67222222,23.5135135 Z" id="Shape"></path>
                </g>
            </g>
        </g>
    </g>
</svg>