<?xml version="1.0" encoding="UTF-8"?>
<svg width="43px" height="17px" viewBox="0 0 43 17" version="1.1" xmlns="http://www.w3.org/2000/svg" xmlns:xlink="http://www.w3.org/1999/xlink">
    <!-- Generator: Sketch 47.1 (45422) - http://www.bohemiancoding.com/sketch -->
    <title>batery</title>
    <desc>Created with Sketch.</desc>
    <defs></defs>
    <g id="Wireframes" stroke="none" stroke-width="1" fill="none" fill-rule="evenodd">
        <g id="Hector-Profile" transform="translate(-292.000000, -29.000000)" fill-rule="nonzero">
            <g id="batery" transform="translate(293.000000, 29.000000)">
                <path d="M37.0615385,0.600006104 C39.0040236,0.600006104 40.6153846,2.2238568 40.6153846,4.18140145 L40.6153846,12.5069828 C40.6153846,14.4645224 39.0040236,16.0883782 37.0615385,16.0883782 L3.55384615,16.0883782 C1.61136106,16.0883782 0,14.4645224 0,12.5069828 L0,4.18140145 C0,2.2238568 1.61136106,0.600006104 3.55384615,0.600006104 L37.0615385,0.600006104 Z M37.0615385,3.66977355 L3.55384615,3.66977355 C3.24624046,3.66977355 3.04615385,3.87141122 3.04615385,4.18140145 L3.04615385,12.5069828 C3.04615385,12.8169782 3.24624046,13.0186108 3.55384615,13.0186108 L37.0615385,13.0186108 C37.3691442,13.0186108 37.5692308,12.8169782 37.5692308,12.5069828 L37.5692308,4.18140145 C37.5692308,3.87141122 37.3691442,3.66977355 37.0615385,3.66977355 Z" id="Shape" stroke="#F1F1F1" stroke-width="0.8" fill="#4A4A4A"></path>
                <path d="M6.74408091,5.39592733 C6.45137932,5.64566308 6.29160021,5.98185079 6.30034062,6.32959153 L6.30034062,10.1439084 C6.2923094,10.6135956 6.5906689,11.0504751 7.08117143,11.2872572 C7.57167396,11.5240393 8.17832594,11.5240393 8.66882847,11.2872572 C9.159331,11.0504751 9.4576905,10.6135956 9.44965928,10.1439084 L9.44965928,6.32959153 C9.45851899,5.97714515 9.29427575,5.63677964 8.99444225,5.38623354 C8.69460875,5.13568744 8.28479353,4.99635968 7.85859725,5.00007234 C7.43809027,5.00365471 7.0367825,5.14619159 6.74408091,5.39592733 Z" id="Shape" fill="#35C5A5"></path>
                <path d="M13.0440809,5.39592733 C12.7513793,5.64566308 12.5916002,5.98185079 12.6003406,6.32959153 L12.6003406,10.1439084 C12.5923094,10.6135956 12.8906689,11.0504751 13.3811714,11.2872572 C13.871674,11.5240393 14.4783259,11.5240393 14.9688285,11.2872572 C15.459331,11.0504751 15.7576905,10.6135956 15.7496593,10.1439084 L15.7496593,6.32959153 C15.758519,5.97714515 15.5942757,5.63677964 15.2944422,5.38623354 C14.9946088,5.13568744 14.5847935,4.99635968 14.1585972,5.00007234 C13.7380903,5.00365471 13.3367825,5.14619159 13.0440809,5.39592733 Z" id="Shape-Copy" fill="#35C5A5"></path>
                <path d="M19.3440809,5.39592733 C19.0513793,5.64566308 18.8916002,5.98185079 18.9003406,6.32959153 L18.9003406,10.1439084 C18.8923094,10.6135956 19.1906689,11.0504751 19.6811714,11.2872572 C20.171674,11.5240393 20.7783259,11.5240393 21.2688285,11.2872572 C21.759331,11.0504751 22.0576905,10.6135956 22.0496593,10.1439084 L22.0496593,6.32959153 C22.058519,5.97714515 21.8942757,5.63677964 21.5944422,5.38623354 C21.2946088,5.13568744 20.8847935,4.99635968 20.4585972,5.00007234 C20.0380903,5.00365471 19.6367825,5.14619159 19.3440809,5.39592733 Z" id="Shape-Copy-2" fill="#35C5A5"></path>
                <path d="M25.6440809,5.39592733 C25.3513793,5.64566308 25.1916002,5.98185079 25.2003406,6.32959153 L25.2003406,10.1439084 C25.1923094,10.6135956 25.4906689,11.0504751 25.9811714,11.2872572 C26.471674,11.5240393 27.0783259,11.5240393 27.5688285,11.2872572 C28.059331,11.0504751 28.3576905,10.6135956 28.3496593,10.1439084 L28.3496593,6.32959153 C28.358519,5.97714515 28.1942757,5.63677964 27.8944422,5.38623354 C27.5946088,5.13568744 27.1847935,4.99635968 26.7585972,5.00007234 C26.3380903,5.00365471 25.9367825,5.14619159 25.6440809,5.39592733 Z" id="Shape-Copy-3" fill="#35C5A5"></path>
            </g>
        </g>
    </g>
</svg>