<?xml version="1.0" encoding="UTF-8"?>
<svg width="33px" height="33px" viewBox="0 0 33 33" version="1.1" xmlns="http://www.w3.org/2000/svg" xmlns:xlink="http://www.w3.org/1999/xlink">
    <!-- Generator: Sketch 47.1 (45422) - http://www.bohemiancoding.com/sketch -->
    <title>serein</title>
    <desc>Created with Sketch.</desc>
    <defs>
        <filter x="-22.0%" y="-22.0%" width="152.0%" height="152.0%" filterUnits="objectBoundingBox" id="filter-1">
            <feOffset dx="1" dy="1" in="SourceAlpha" result="shadowOffsetOuter1"></feOffset>
            <feGaussianBlur stdDeviation="2" in="shadowOffsetOuter1" result="shadowBlurOuter1"></feGaussianBlur>
            <feColorMatrix values="0 0 0 0 0   0 0 0 0 0   0 0 0 0 0  0 0 0 0.439594656 0" type="matrix" in="shadowBlurOuter1" result="shadowMatrixOuter1"></feColorMatrix>
            <feMerge>
                <feMergeNode in="shadowMatrixOuter1"></feMergeNode>
                <feMergeNode in="SourceGraphic"></feMergeNode>
            </feMerge>
        </filter>
    </defs>
    <g id="Wireframes" stroke="none" stroke-width="1" fill="none" fill-rule="evenodd">
        <g id="Dashboard" transform="translate(-29.000000, -1018.000000)">
            <g id="FRIENDS" transform="translate(0.000000, 980.000000)">
                <g id="serein" transform="translate(30.000000, 40.000000)">
                    <g id="cat-bg" filter="url(#filter-1)" transform="translate(2.000000, 1.000000)">
                        <polygon id="Path-3" fill="#F8C77D" points="25 14.1304348 25 0 13.8297872 5.12934783"></polygon>
                        <polygon id="Path-3" fill="#C87781" points="0 14.1304348 0 0 11.1702128 5.12934783"></polygon>
                        <ellipse id="Oval" fill="#C87781" cx="12.5" cy="12.7717391" rx="12.5" ry="12.2282609"></ellipse>
                        <path d="M1.73913413,18.9975631 C3.91622268,22.5909149 7.92052345,25 12.5,25 C19.4035594,25 25,19.5252211 25,12.7717391 C25,6.01825714 19.4035594,0.543478261 12.5,0.543478261 C11.9052523,0.543478261 11.320206,0.584111923 10.7476038,0.662696237 C12.1629812,2.5738611 13,4.93918244 13,7.5 C13,13.7713703 7.98001021,18.8702591 1.73913413,18.9975631 Z" id="Combined-Shape" fill="#F8C77D"></path>
                    </g>
                    <path d="M9.334375,14.4511628 C8.00520833,14.4511628 6.91770833,13.3627907 6.91770833,12.0325581 C6.91770833,11.7906977 7.12916667,11.5790698 7.37083333,11.5790698 C7.6125,11.5790698 7.82395833,11.7906977 7.82395833,12.0325581 C7.82395833,12.8488372 8.48854167,13.544186 9.334375,13.544186 C10.1802083,13.544186 10.8447917,12.8790698 10.8447917,12.0325581 C10.8447917,11.7906977 11.05625,11.5790698 11.2979167,11.5790698 C11.5395833,11.5790698 11.7510417,11.7906977 11.7510417,12.0325581 C11.7208333,13.3930233 10.6333333,14.4511628 9.334375,14.4511628 Z" id="Shape" fill="#4A4A4A" fill-rule="nonzero"></path>
                    <path d="M19.9979167,14.4511628 C18.66875,14.4511628 17.58125,13.3627907 17.58125,12.0325581 C17.58125,11.7906977 17.7927083,11.5790698 18.034375,11.5790698 C18.2760417,11.5790698 18.4875,11.7906977 18.4875,12.0325581 C18.4875,12.8488372 19.1520833,13.544186 19.9979167,13.544186 C20.84375,13.544186 21.5083333,12.8790698 21.5083333,12.0325581 C21.5083333,11.7906977 21.7197917,11.5790698 21.9614583,11.5790698 C22.203125,11.5790698 22.4145833,11.7906977 22.4145833,12.0325581 C22.4145833,13.3930233 21.3270833,14.4511628 19.9979167,14.4511628 Z" id="Shape" fill="#4A4A4A" fill-rule="nonzero"></path>
                    <path d="M18.215625,18.8953488 C17.9739583,18.8348837 17.7322917,18.9860465 17.671875,19.227907 C17.5208333,19.8023256 17.0072917,20.1953488 16.4333333,20.1953488 C15.7385417,20.1953488 15.1947917,19.6511628 15.134375,18.955814 L16.13125,17.9581395 C16.3427083,17.7465116 16.1916667,17.4139535 15.8895833,17.4139535 L13.4125,17.4139535 C13.140625,17.4139535 12.9895833,17.7465116 13.1708333,17.9581395 L14.1677083,18.955814 C14.1375,19.6511628 13.5635417,20.1953488 12.86875,20.1953488 C12.2947917,20.1953488 11.78125,19.8023256 11.6302083,19.227907 C11.5697917,18.9860465 11.328125,18.8348837 11.0864583,18.8953488 C10.8447917,18.955814 10.69375,19.1976744 10.7541667,19.4395349 C10.9958333,20.4069767 11.871875,21.072093 12.86875,21.072093 C12.9291667,21.072093 12.959375,21.072093 13.0197917,21.072093 C13.4427083,21.5255814 14.0166667,21.7674419 14.6208333,21.7674419 C15.225,21.7674419 15.7989583,21.5255814 16.221875,21.072093 C16.2822917,21.072093 16.3125,21.072093 16.3729167,21.072093 C17.3697917,21.072093 18.2458333,20.4069767 18.4875,19.4395349 C18.6083333,19.227907 18.4572917,18.9860465 18.215625,18.8953488 Z M14.6510417,20.8906977 C14.4395833,20.8906977 14.2583333,20.8302326 14.0770833,20.7697674 C14.2885417,20.6186047 14.5,20.4674419 14.6510417,20.255814 C14.8020833,20.4674419 15.0135417,20.6488372 15.225,20.7697674 C15.04375,20.8302326 14.8625,20.8906977 14.6510417,20.8906977 Z" id="Shape" fill="#4A4A4A" fill-rule="nonzero"></path>
                    <path d="M28.365625,16.6581395 L27.5802083,16.6581395 C27.8520833,15.6604651 28.0333333,14.6023256 28.0333333,13.544186 L28.0333333,13.544186 C28.0333333,13.544186 28.0333333,13.544186 28.0333333,13.544186 C28.0333333,13.544186 28.0333333,13.544186 28.0333333,13.544186 L27.821875,1.20930233 C27.821875,0.846511628 27.640625,0.544186047 27.3385417,0.362790698 C27.0364583,0.181395349 26.6739583,0.151162791 26.371875,0.302325581 L21.025,2.78139535 C19.0614583,1.78372093 16.8260417,1.26976744 14.5604167,1.26976744 C12.2947917,1.26976744 10.059375,1.81395349 8.065625,2.78139535 L2.68854167,0.272093023 C2.38645833,0.120930233 1.99375,0.151162791 1.721875,0.33255814 C1.41979167,0.513953488 1.23854167,0.846511628 1.23854167,1.17906977 L1.05729167,13.544186 C1.05729167,14.6325581 1.20833333,15.6604651 1.51041667,16.6581395 L0.634375,16.6581395 C0.392708333,16.6581395 0.18125,16.8697674 0.18125,17.1116279 C0.18125,17.3534884 0.392708333,17.5651163 0.634375,17.5651163 L1.8125,17.5651163 C2.084375,18.3209302 2.446875,19.0465116 2.9,19.7116279 L1.20833333,20.4069767 C0.966666667,20.4976744 0.876041667,20.7697674 0.966666667,21.0116279 C1.02708333,21.1627907 1.20833333,21.2837209 1.38958333,21.2837209 C1.45,21.2837209 1.51041667,21.2837209 1.57083333,21.2534884 L3.41354167,20.4976744 C3.83645833,21.0418605 4.28958333,21.5860465 4.803125,22.0697674 L3.171875,23.7023256 C2.990625,23.8837209 2.990625,24.155814 3.171875,24.3372093 C3.2625,24.427907 3.38333333,24.4581395 3.50416667,24.4581395 C3.625,24.4581395 3.74583333,24.427907 3.83645833,24.3372093 L5.49791667,22.6744186 C7.884375,24.6697674 11.05625,25.8790698 14.5604167,25.8790698 C18.034375,25.8790698 21.1760417,24.6697674 23.5927083,22.7046512 L25.2239583,24.3372093 C25.3145833,24.427907 25.4354167,24.4581395 25.55625,24.4581395 C25.6770833,24.4581395 25.7979167,24.427907 25.8885417,24.3372093 C26.0697917,24.155814 26.0697917,23.8837209 25.8885417,23.7023256 L24.2270833,22.0697674 C24.740625,21.5860465 25.19375,21.072093 25.6166667,20.4976744 L27.4291667,21.2534884 C27.4895833,21.2837209 27.55,21.2837209 27.6104167,21.2837209 C27.7916667,21.2837209 27.9427083,21.1930233 28.0333333,21.0116279 C28.1239583,20.7697674 28.0333333,20.527907 27.7916667,20.4069767 L26.1604167,19.7418605 C26.6135417,19.0465116 26.9760417,18.3209302 27.278125,17.5651163 L28.365625,17.5651163 C28.6072917,17.5651163 28.81875,17.3534884 28.81875,17.1116279 C28.81875,16.8697674 28.6072917,16.6581395 28.365625,16.6581395 Z M23.2,17.5651163 L26.28125,17.5651163 C26.009375,18.2 25.6770833,18.8348837 25.3145833,19.4093023 L23.01875,18.4418605 C22.7770833,18.3511628 22.5354167,18.4418605 22.4145833,18.6837209 C22.3239583,18.9255814 22.4145833,19.1674419 22.65625,19.2883721 L24.740625,20.1651163 C24.378125,20.6186047 23.9854167,21.0418605 23.5625,21.4348837 L22.1729167,20.044186 C21.9916667,19.8627907 21.7197917,19.8627907 21.5385417,20.044186 C21.3572917,20.2255814 21.3572917,20.4976744 21.5385417,20.6790698 L22.8979167,22.0395349 C20.6625,23.8534884 17.7322917,24.9418605 14.5302083,24.9418605 C11.2979167,24.9418605 8.3375,23.8232558 6.13229167,22.0093023 L7.46145833,20.6790698 C7.64270833,20.4976744 7.64270833,20.2255814 7.46145833,20.044186 C7.28020833,19.8627907 7.00833333,19.8627907 6.82708333,20.044186 L5.4375,21.4046512 C5.01458333,21.0116279 4.621875,20.5581395 4.259375,20.1046512 L6.31354167,19.2581395 C6.55520833,19.1674419 6.64583333,18.8953488 6.55520833,18.6534884 C6.46458333,18.4116279 6.19270833,18.3209302 5.95104167,18.4116279 L3.715625,19.3488372 C3.353125,18.7744186 3.02083333,18.1697674 2.74895833,17.5348837 L5.76979167,17.5348837 C6.01145833,17.5348837 6.22291667,17.3232558 6.22291667,17.0813953 C6.22291667,16.8395349 6.01145833,16.627907 5.76979167,16.627907 L2.446875,16.627907 C2.14479167,15.6302326 1.96354167,14.6023256 1.96354167,13.5139535 L2.11458333,1.20930233 C2.11458333,1.14883721 2.14479167,1.11860465 2.175,1.11860465 C2.20520833,1.08837209 2.23541667,1.08837209 2.29583333,1.11860465 L10.0291667,4.68604651 C10.2708333,4.77674419 10.5125,4.68604651 10.6333333,4.4744186 C10.7541667,4.2627907 10.6333333,3.99069767 10.421875,3.86976744 L9.153125,3.29534884 C10.8447917,2.56976744 12.6875,2.17674419 14.5604167,2.17674419 C16.4333333,2.17674419 18.2760417,2.56976744 19.9677083,3.29534884 L18.66875,3.9 C18.4270833,3.99069767 18.3364583,4.2627907 18.4572917,4.50465116 C18.578125,4.74651163 18.8197917,4.8372093 19.0614583,4.71627907 L26.7947917,1.14883721 C26.8552083,1.11860465 26.8854167,1.14883721 26.915625,1.14883721 C26.9458333,1.17906977 26.9760417,1.20930233 26.9760417,1.23953488 L27.1572917,13.272093 L27.1572917,13.272093 L27.1572917,13.5744186 C27.1572917,14.6627907 26.9760417,15.6906977 26.6739583,16.6883721 L23.2,16.6883721 C22.9583333,16.6883721 22.746875,16.9 22.746875,17.1418605 C22.746875,17.3837209 22.9583333,17.5651163 23.2,17.5651163 Z" id="Shape" fill="#4A4A4A" fill-rule="nonzero"></path>
                </g>
            </g>
        </g>
    </g>
</svg>