<?xml version="1.0" encoding="UTF-8"?>
<svg width="33px" height="32px" viewBox="0 0 33 32" version="1.1" xmlns="http://www.w3.org/2000/svg" xmlns:xlink="http://www.w3.org/1999/xlink">
    <!-- Generator: Sketch 47.1 (45422) - http://www.bohemiancoding.com/sketch -->
    <title>blaze</title>
    <desc>Created with Sketch.</desc>
    <defs>
        <filter x="-26.0%" y="-22.9%" width="152.0%" height="154.2%" filterUnits="objectBoundingBox" id="filter-1">
            <feOffset dx="0" dy="1" in="SourceAlpha" result="shadowOffsetOuter1"></feOffset>
            <feGaussianBlur stdDeviation="2" in="shadowOffsetOuter1" result="shadowBlurOuter1"></feGaussianBlur>
            <feColorMatrix values="0 0 0 0 0   0 0 0 0 0   0 0 0 0 0  0 0 0 0.155061141 0" type="matrix" in="shadowBlurOuter1" result="shadowMatrixOuter1"></feColorMatrix>
            <feMerge>
                <feMergeNode in="shadowMatrixOuter1"></feMergeNode>
                <feMergeNode in="SourceGraphic"></feMergeNode>
            </feMerge>
        </filter>
    </defs>
    <g id="Wireframes" stroke="none" stroke-width="1" fill="none" fill-rule="evenodd">
        <g id="Dashboard" transform="translate(-28.000000, -1055.000000)">
            <g id="FRIENDS" transform="translate(0.000000, 980.000000)">
                <g id="blaze" transform="translate(30.000000, 77.000000)">
                    <g id="cat-bg" filter="url(#filter-1)" transform="translate(2.000000, 1.000000)" fill="#C1C1C1">
                        <polygon id="Path-3" points="0 13.5652174 0 0 11.1702128 4.92417391"></polygon>
                        <polygon id="Path-3" points="25 13.5652174 25 0 13.8297872 4.92417391"></polygon>
                        <ellipse id="Oval" cx="12.5" cy="12.2608696" rx="12.5" ry="11.7391304"></ellipse>
                    </g>
                    <path d="M28.365625,16.627907 L27.5802083,16.627907 C27.8520833,15.6302326 28.0333333,14.572093 28.0333333,13.5139535 L28.0333333,13.5139535 C28.0333333,13.5139535 28.0333333,13.5139535 28.0333333,13.5139535 C28.0333333,13.5139535 28.0333333,13.5139535 28.0333333,13.5139535 L27.8520833,1.17906977 C27.8520833,0.81627907 27.6708333,0.513953488 27.36875,0.33255814 C27.0666667,0.151162791 26.7041667,0.120930233 26.4020833,0.272093023 L20.9947917,2.72093023 C19.03125,1.72325581 16.7958333,1.20930233 14.5302083,1.20930233 C12.2645833,1.20930233 10.0291667,1.75348837 8.03541667,2.72093023 L2.68854167,0.241860465 C2.35625,0.120930233 1.99375,0.120930233 1.69166667,0.33255814 C1.38958333,0.513953488 1.20833333,0.846511628 1.20833333,1.17906977 L1.05729167,13.5139535 C1.05729167,14.6023256 1.20833333,15.6302326 1.51041667,16.627907 L0.634375,16.627907 C0.392708333,16.627907 0.18125,16.8395349 0.18125,17.0813953 C0.18125,17.3232558 0.392708333,17.5348837 0.634375,17.5348837 L1.8125,17.5348837 C2.084375,18.2906977 2.446875,19.0162791 2.9,19.6813953 L1.20833333,20.3767442 C0.966666667,20.4674419 0.876041667,20.7395349 0.966666667,20.9813953 C1.02708333,21.1627907 1.20833333,21.2534884 1.38958333,21.2534884 C1.45,21.2534884 1.51041667,21.2534884 1.57083333,21.2232558 L3.41354167,20.4674419 C3.83645833,21.0116279 4.28958333,21.555814 4.803125,22.0395349 L3.171875,23.672093 C2.990625,23.8534884 2.990625,24.1255814 3.171875,24.3069767 C3.2625,24.3976744 3.38333333,24.427907 3.50416667,24.427907 C3.625,24.427907 3.74583333,24.3976744 3.83645833,24.3069767 L5.49791667,22.644186 C7.884375,24.6395349 11.05625,25.8488372 14.5604167,25.8488372 C18.034375,25.8488372 21.1760417,24.6395349 23.5927083,22.6744186 L25.2239583,24.3069767 C25.3145833,24.3976744 25.4354167,24.427907 25.55625,24.427907 C25.6770833,24.427907 25.7979167,24.3976744 25.8885417,24.3069767 C26.0697917,24.1255814 26.0697917,23.8534884 25.8885417,23.672093 L24.2270833,22.0697674 C24.740625,21.5860465 25.19375,21.072093 25.6166667,20.4976744 L27.4291667,21.2534884 C27.4895833,21.2837209 27.55,21.2837209 27.6104167,21.2837209 C27.7916667,21.2837209 27.9427083,21.1930233 28.0333333,21.0116279 C28.1239583,20.7697674 28.0333333,20.527907 27.7916667,20.4069767 L26.1604167,19.7418605 C26.6135417,19.0465116 26.9760417,18.3209302 27.278125,17.5651163 L28.365625,17.5651163 C28.6072917,17.5651163 28.81875,17.3534884 28.81875,17.1116279 C28.81875,16.8697674 28.6072917,16.627907 28.365625,16.627907 Z M25.3145833,19.3790698 L23.01875,18.4418605 C22.7770833,18.3511628 22.5354167,18.4418605 22.4145833,18.6837209 C22.3239583,18.9255814 22.4145833,19.1674419 22.65625,19.2883721 L24.740625,20.1651163 C24.378125,20.6186047 23.9854167,21.0418605 23.5625,21.4348837 L22.1729167,20.044186 C21.9916667,19.8627907 21.7197917,19.8627907 21.5385417,20.044186 C21.3572917,20.2255814 21.3572917,20.4976744 21.5385417,20.6790698 L22.8979167,22.0395349 C20.6625,23.8534884 17.7322917,24.9418605 14.5302083,24.9418605 C11.2979167,24.9418605 8.3375,23.8232558 6.13229167,22.0093023 L7.46145833,20.6790698 C7.64270833,20.4976744 7.64270833,20.2255814 7.46145833,20.044186 C7.28020833,19.8627907 7.00833333,19.8627907 6.82708333,20.044186 L5.4375,21.4046512 C5.01458333,21.0116279 4.621875,20.5581395 4.259375,20.1046512 L6.31354167,19.2581395 C6.55520833,19.1674419 6.64583333,18.8953488 6.55520833,18.6534884 C6.46458333,18.4116279 6.19270833,18.3209302 5.95104167,18.4116279 L3.715625,19.3488372 C3.353125,18.7744186 3.02083333,18.1697674 2.74895833,17.5348837 L5.76979167,17.5348837 C6.01145833,17.5348837 6.22291667,17.3232558 6.22291667,17.0813953 C6.22291667,16.8395349 6.04166667,16.627907 5.8,16.627907 L2.446875,16.627907 C2.14479167,15.6302326 1.96354167,14.6023256 1.96354167,13.5139535 L2.11458333,1.17906977 C2.11458333,1.11860465 2.14479167,1.08837209 2.175,1.08837209 C2.20520833,1.05813953 2.23541667,1.05813953 2.29583333,1.08837209 L10.0291667,4.65581395 C10.2708333,4.74651163 10.5125,4.65581395 10.6333333,4.44418605 C10.7239583,4.20232558 10.6333333,3.96046512 10.421875,3.83953488 L9.153125,3.26511628 C10.8447917,2.53953488 12.6875,2.14651163 14.5604167,2.14651163 C16.4333333,2.14651163 18.2760417,2.53953488 19.9677083,3.26511628 L18.66875,3.86976744 C18.4270833,3.96046512 18.3364583,4.23255814 18.4572917,4.4744186 C18.5479167,4.71627907 18.8197917,4.80697674 19.0614583,4.68604651 L26.7947917,1.11860465 C26.8552083,1.08837209 26.8854167,1.11860465 26.915625,1.11860465 C26.9458333,1.14883721 26.9760417,1.17906977 26.9760417,1.20930233 L27.1572917,13.2418605 L27.1572917,13.2418605 L27.1572917,13.544186 C27.1572917,14.6325581 26.9760417,15.6604651 26.6739583,16.6581395 L23.2,16.6581395 C22.9583333,16.6581395 22.746875,16.8697674 22.746875,17.1116279 C22.746875,17.3534884 22.9583333,17.5348837 23.2,17.5348837 L26.28125,17.5348837 C26.009375,18.2 25.7072917,18.8046512 25.3145833,19.3790698 Z" id="Shape" fill="#4A4A4A" fill-rule="nonzero"></path>
                    <path d="M7.09895833,11.7 C7.09895833,11.7604651 7.09895833,11.8511628 7.09895833,11.9116279 C7.09895833,13.0604651 8.00520833,13.9674419 9.12291667,13.9976744 C10.2708333,13.9976744 11.1770833,13.0906977 11.2072917,11.972093 C11.2072917,11.9116279 11.2072917,11.8209302 11.2072917,11.7604651 L7.09895833,11.7 Z" id="Shape" fill="#4A4A4A" fill-rule="nonzero"></path>
                    <path d="M21.9010417,11.7604651 C21.9010417,11.8209302 21.9010417,11.9116279 21.9010417,11.972093 C21.8708333,13.1209302 20.934375,14.027907 19.8166667,13.9976744 C18.66875,13.9674419 17.7625,13.0302326 17.7927083,11.9116279 C17.7927083,11.8511628 17.7927083,11.7604651 17.8229167,11.7 L21.9010417,11.7604651 Z" id="Shape" fill="#4A4A4A" fill-rule="nonzero"></path>
                    <path d="M17.490625,18.3209302 L11.509375,18.3209302 C11.2677083,18.3209302 11.05625,18.1093023 11.05625,17.8674419 C11.05625,17.6255814 11.2677083,17.4139535 11.509375,17.4139535 L17.4604167,17.4139535 C17.7020833,17.4139535 17.9135417,17.6255814 17.9135417,17.8674419 C17.9135417,18.1093023 17.7322917,18.3209302 17.490625,18.3209302 Z" id="Shape" fill="#4A4A4A" fill-rule="nonzero"></path>
                </g>
            </g>
        </g>
    </g>
</svg>