<?xml version="1.0" encoding="UTF-8"?>
<svg width="53px" height="48px" viewBox="0 0 53 48" version="1.1" xmlns="http://www.w3.org/2000/svg" xmlns:xlink="http://www.w3.org/1999/xlink">
    <!-- Generator: Sketch 47.1 (45422) - http://www.bohemiancoding.com/sketch -->
    <title>happy</title>
    <desc>Created with Sketch.</desc>
    <defs></defs>
    <g id="Wireframes" stroke="none" stroke-width="1" fill="none" fill-rule="evenodd">
        <g id="Dashboard" transform="translate(-244.000000, -918.000000)" fill-rule="nonzero" fill="#474A59">
            <g id="NEW-FRIEND" transform="translate(20.000000, 918.000000)">
                <g id="happy" transform="translate(224.000000, 0.000000)">
                    <path d="M20.3166667,25.6790698 C19.875,25.6790698 19.4885417,25.2883721 19.4885417,24.8418605 C19.4885417,23.3348837 18.2739583,22.0511628 16.728125,22.0511628 C15.1822917,22.0511628 13.9677083,23.2790698 13.9677083,24.8418605 C13.9677083,25.2883721 13.58125,25.6790698 13.1395833,25.6790698 C12.6979167,25.6790698 12.3114583,25.2883721 12.3114583,24.8418605 C12.3114583,22.3860465 14.2989583,20.3767442 16.728125,20.3767442 C19.1572917,20.3767442 21.1447917,22.3860465 21.1447917,24.8418605 C21.1447917,25.2883721 20.7583333,25.6790698 20.3166667,25.6790698 Z" id="Shape"></path>
                    <path d="M39.8052083,25.6790698 C39.3635417,25.6790698 38.9770833,25.2883721 38.9770833,24.8418605 C38.9770833,23.3348837 37.7625,22.0511628 36.2166667,22.0511628 C34.6708333,22.0511628 33.45625,23.2790698 33.45625,24.8418605 C33.45625,25.2883721 33.0697917,25.6790698 32.628125,25.6790698 C32.1864583,25.6790698 31.8,25.2883721 31.8,24.8418605 C31.8,22.3860465 33.7875,20.3767442 36.2166667,20.3767442 C38.6458333,20.3767442 40.6333333,22.3860465 40.6333333,24.8418605 C40.6333333,25.2883721 40.3020833,25.6790698 39.8052083,25.6790698 Z" id="Shape"></path>
                    <path d="M33.621875,34.4372093 C33.6770833,34.0465116 33.45625,33.7116279 33.0697917,33.544186 C32.628125,33.3767442 32.1864583,33.6 32.0208333,34.0465116 C31.8,34.6046512 30.9166667,35.2186047 29.7020833,35.2186047 C28.3770833,35.2186047 27.4385417,34.5488372 27.328125,33.8790698 L28.7635417,32.427907 C29.0947917,32.0930233 28.8739583,31.5906977 28.4322917,31.5906977 L24.5677083,31.5906977 C24.1260417,31.5906977 23.9052083,32.1488372 24.2364583,32.427907 L25.671875,33.8790698 C25.6166667,34.5488372 24.678125,35.2186047 23.2979167,35.2186047 C22.0833333,35.1627907 21.2,34.6046512 20.9791667,34.0465116 C20.8135417,33.6 20.3166667,33.3767442 19.9302083,33.544186 C19.54375,33.655814 19.378125,34.0465116 19.378125,34.4372093 C19.378125,34.6046512 19.378125,34.827907 19.4885417,34.9953488 C21.3104167,37.8418605 23.9604167,39.5162791 26.4447917,39.5162791 C28.9291667,39.5162791 31.5791667,37.8418605 33.4010417,34.9953488 C33.5666667,34.827907 33.621875,34.6046512 33.621875,34.4372093 Z M23.5739583,36.8372093 C24.7885417,36.7813953 25.8375,36.3348837 26.5,35.6651163 C27.1625,36.3348837 28.2114583,36.7813953 29.4260417,36.8372093 C28.4875,37.5069767 27.4385417,37.8418605 26.5,37.8418605 C25.5614583,37.8418605 24.5125,37.5069767 23.5739583,36.8372093 Z" id="Shape"></path>
                    <path d="M51.840625,30.6976744 L50.4052083,30.6976744 C50.9020833,28.855814 51.2333333,26.9023256 51.2333333,24.9488372 L51.2333333,24.9488372 C51.2333333,24.9488372 51.2333333,24.9488372 51.2333333,24.9488372 C51.2333333,24.9488372 51.2333333,24.9488372 51.2333333,24.9488372 L50.9020833,2.17674419 C50.9020833,1.50697674 50.5708333,0.948837209 50.01875,0.613953488 C49.4666667,0.279069767 48.8041667,0.223255814 48.2520833,0.502325581 L38.3697917,5.02325581 C34.78125,3.18139535 30.6958333,2.23255814 26.5552083,2.23255814 C22.4145833,2.23255814 18.3291667,3.2372093 14.6854167,5.02325581 L4.91354167,0.446511628 C4.30625,0.223255814 3.64375,0.223255814 3.09166667,0.613953488 C2.53958333,0.948837209 2.20833333,1.5627907 2.20833333,2.17674419 L1.93229167,24.9488372 C1.93229167,26.9581395 2.20833333,28.855814 2.76041667,30.6976744 L1.159375,30.6976744 C0.717708333,30.6976744 0.33125,31.0883721 0.33125,31.5348837 C0.33125,31.9813953 0.717708333,32.372093 1.159375,32.372093 L3.3125,32.372093 C3.809375,33.7674419 4.471875,35.1069767 5.3,36.3348837 L2.20833333,37.6186047 C1.76666667,37.7860465 1.60104167,38.2883721 1.76666667,38.7348837 C1.87708333,39.0697674 2.20833333,39.2372093 2.53958333,39.2372093 C2.65,39.2372093 2.76041667,39.2372093 2.87083333,39.1813953 L6.23854167,37.7860465 C7.01145833,38.7906977 7.83958333,39.7953488 8.778125,40.6883721 L5.796875,43.7023256 C5.465625,44.0372093 5.465625,44.5395349 5.796875,44.8744186 C5.9625,45.0418605 6.18333333,45.0976744 6.40416667,45.0976744 C6.625,45.0976744 6.84583333,45.0418605 7.01145833,44.8744186 L10.0479167,41.8046512 C14.409375,45.4883721 20.20625,47.7209302 26.6104167,47.7209302 C32.959375,47.7209302 38.7010417,45.4883721 43.1177083,41.8604651 L46.0989583,44.8744186 C46.2645833,45.0418605 46.4854167,45.0976744 46.70625,45.0976744 C46.9270833,45.0976744 47.1479167,45.0418605 47.3135417,44.8744186 C47.6447917,44.5395349 47.6447917,44.0372093 47.3135417,43.7023256 L44.2770833,40.744186 C45.215625,39.8511628 46.04375,38.9023256 46.8166667,37.8418605 L50.1291667,39.2372093 C50.2395833,39.2930233 50.35,39.2930233 50.4604167,39.2930233 C50.7916667,39.2930233 51.0677083,39.1255814 51.2333333,38.7906977 C51.3989583,38.344186 51.2333333,37.8976744 50.7916667,37.6744186 L47.8104167,36.4465116 C48.6385417,35.1627907 49.3010417,33.8232558 49.853125,32.427907 L51.840625,32.427907 C52.2822917,32.427907 52.66875,32.0372093 52.66875,31.5906977 C52.66875,31.144186 52.2822917,30.6976744 51.840625,30.6976744 Z M46.2645833,35.7767442 L42.06875,34.0465116 C41.6270833,33.8790698 41.1854167,34.0465116 40.9645833,34.4930233 C40.7989583,34.9395349 40.9645833,35.3860465 41.40625,35.6093023 L45.215625,37.227907 C44.553125,38.0651163 43.8354167,38.8465116 43.0625,39.572093 L40.5229167,37.0046512 C40.1916667,36.6697674 39.6947917,36.6697674 39.3635417,37.0046512 C39.0322917,37.3395349 39.0322917,37.8418605 39.3635417,38.1767442 L41.8479167,40.6883721 C37.7625,44.0372093 32.4072917,46.0465116 26.5552083,46.0465116 C20.6479167,46.0465116 15.2375,43.9813953 11.2072917,40.6325581 L13.6364583,38.1767442 C13.9677083,37.8418605 13.9677083,37.3395349 13.6364583,37.0046512 C13.3052083,36.6697674 12.8083333,36.6697674 12.4770833,37.0046512 L9.9375,39.5162791 C9.16458333,38.7906977 8.446875,37.9534884 7.784375,37.1162791 L11.5385417,35.5534884 C11.9802083,35.3860465 12.1458333,34.8837209 11.9802083,34.4372093 C11.8145833,33.9906977 11.3177083,33.8232558 10.8760417,33.9906977 L6.790625,35.7209302 C6.128125,34.6604651 5.52083333,33.544186 5.02395833,32.372093 L10.5447917,32.372093 C10.9864583,32.372093 11.3729167,31.9813953 11.3729167,31.5348837 C11.3729167,31.0883721 11.0416667,30.6976744 10.6,30.6976744 L4.471875,30.6976744 C3.91979167,28.855814 3.58854167,26.9581395 3.58854167,24.9488372 L3.86458333,2.17674419 C3.86458333,2.06511628 3.91979167,2.00930233 3.975,2.00930233 C4.03020833,1.95348837 4.08541667,1.95348837 4.19583333,2.00930233 L18.3291667,8.59534884 C18.7708333,8.7627907 19.2125,8.59534884 19.4333333,8.20465116 C19.5989583,7.75813953 19.4333333,7.31162791 19.046875,7.08837209 L16.728125,6.02790698 C19.8197917,4.68837209 23.1875,3.9627907 26.6104167,3.9627907 C30.0333333,3.9627907 33.4010417,4.68837209 36.4927083,6.02790698 L34.11875,7.14418605 C33.6770833,7.31162791 33.5114583,7.81395349 33.7322917,8.26046512 C33.8979167,8.70697674 34.3947917,8.8744186 34.8364583,8.65116279 L48.9697917,2.06511628 C49.0802083,2.00930233 49.1354167,2.06511628 49.190625,2.06511628 C49.2458333,2.12093023 49.3010417,2.17674419 49.3010417,2.23255814 L49.6322917,24.4465116 L49.6322917,24.4465116 L49.6322917,25.0046512 C49.6322917,27.0139535 49.3010417,28.9116279 48.7489583,30.7534884 L42.4,30.7534884 C41.9583333,30.7534884 41.571875,31.144186 41.571875,31.5906977 C41.571875,32.0372093 41.9583333,32.372093 42.4,32.372093 L48.03125,32.372093 C47.534375,33.6 46.9822917,34.7162791 46.2645833,35.7767442 Z" id="Shape"></path>
                </g>
            </g>
        </g>
    </g>
</svg>