<?xml version="1.0" encoding="UTF-8"?>
<svg width="18px" height="18px" viewBox="0 0 18 18" version="1.1" xmlns="http://www.w3.org/2000/svg" xmlns:xlink="http://www.w3.org/1999/xlink">
    <!-- Generator: Sketch 47.1 (45422) - http://www.bohemiancoding.com/sketch -->
    <title>pen copy</title>
    <desc>Created with Sketch.</desc>
    <defs></defs>
    <g id="Guidelines" stroke="none" stroke-width="1" fill="none" fill-rule="evenodd">
        <g id="My-Profile" transform="translate(-307.000000, -265.000000)" fill-rule="nonzero" fill="#4A4A4A">
            <g id="pen-copy" transform="translate(307.000000, 265.000000)">
                <path d="M17.1770733,0.8232 C16.6489599,0.2928 15.9420081,0 15.1906468,0 L15.1894466,0 C14.436885,0 13.733534,0.294 13.2054206,0.8232 L11.6474862,2.382 C11.6462859,2.3832 11.6438854,2.3832 11.6426852,2.3856 L1.21844731,12.8064 C1.14163082,12.8832 1.08761922,12.9804 1.06121355,13.0848 L0.0181896407,17.2548 C-0.033421439,17.4588 0.0265914444,17.6772 0.175423395,17.8248 C0.290648132,17.9376 0.443080856,18 0.60031461,18 C0.649525175,18 0.698735739,17.994 0.746746046,17.9808 L4.91644119,16.9368 C5.02206386,16.9092 5.11808448,16.8552 5.19490097,16.7784 L15.6191388,6.36 C15.6215393,6.3576 15.6215393,6.3552 15.6239399,6.3528 L17.1782735,4.7976 C18.2729085,3.702 18.275309,1.92 17.1770733,0.8232 Z M4.46154353,15.8124 L1.42489163,16.5756 L2.18465473,13.5384 L12.0675764,3.6588 L14.3432649,5.9364 L4.46154353,15.8124 Z M16.3284911,3.9504 L15.1930473,5.0868 L12.9173588,2.8104 L14.0552031,1.6728 C14.357668,1.368 14.7609546,1.2 15.1894466,1.2 C15.1906468,1.2 15.1906468,1.2 15.1906468,1.2 C15.6203391,1.2 16.0260262,1.368 16.3284911,1.6728 C16.9562259,2.3004 16.9562259,3.3228 16.3284911,3.9504 Z" id="Shape"></path>
            </g>
        </g>
    </g>
</svg>