<?xml version="1.0" encoding="UTF-8"?>
<svg width="30px" height="29px" viewBox="0 0 30 29" version="1.1" xmlns="http://www.w3.org/2000/svg" xmlns:xlink="http://www.w3.org/1999/xlink">
    <!-- Generator: Sketch 47.1 (45422) - http://www.bohemiancoding.com/sketch -->
    <title>Page 1</title>
    <desc>Created with Sketch.</desc>
    <defs></defs>
    <g id="Guidelines" stroke="none" stroke-width="1" fill="none" fill-rule="evenodd">
        <g id="Menu-Patte" transform="translate(-28.000000, -291.000000)" fill="#4A4A4A">
            <g id="JOURNAL" transform="translate(28.000000, 285.000000)">
                <g id="Page-1" transform="translate(0.000000, 6.000000)">
                    <path d="M10.4516038,27.2856538 L28.4210377,27.2856538 L28.4210377,1.55568269 L10.4516038,1.55568269 L10.4516038,27.2856538 Z M8.87264151,27.2856538 L3.94726415,27.2856538 L3.94726415,24.3722692 L5.65783019,24.3722692 C6.09367925,24.3722692 6.44716981,24.0237115 6.44716981,23.5942885 C6.44716981,23.1651442 6.09367925,22.8165865 5.65783019,22.8165865 L3.94726415,22.8165865 L3.94726415,20.4832019 L5.65783019,20.4832019 C6.09367925,20.4832019 6.44716981,20.1346442 6.44716981,19.7052212 C6.44716981,19.2760769 6.09367925,18.9275192 5.65783019,18.9275192 L3.94726415,18.9275192 L3.94726415,9.59342308 L5.65783019,9.59342308 C6.09367925,9.59342308 6.44716981,9.24486538 6.44716981,8.81544231 C6.44716981,8.38629808 6.09367925,8.03774038 5.65783019,8.03774038 L3.94726415,8.03774038 L3.94726415,5.70435577 L5.65783019,5.70435577 C6.09367925,5.70435577 6.44716981,5.35579808 6.44716981,4.926375 C6.44716981,4.49723077 6.09367925,4.14867308 5.65783019,4.14867308 L3.94726415,4.14867308 L3.94726415,1.55568269 L8.87264151,1.55568269 L8.87264151,27.2856538 Z M29.2106604,0 L9.66198113,0 L3.15792453,0 C2.72207547,0 2.36830189,0.348557692 2.36830189,0.777980769 L2.36830189,4.14867308 L0.789622642,4.14867308 C0.353773585,4.14867308 0,4.49723077 0,4.926375 C0,5.35579808 0.353773585,5.70435577 0.789622642,5.70435577 L2.36830189,5.70435577 L2.36830189,8.03774038 L0.789622642,8.03774038 C0.353773585,8.03774038 0,8.38629808 0,8.81544231 C0,9.24486538 0.353773585,9.59342308 0.789622642,9.59342308 L2.36830189,9.59342308 L2.36830189,18.9275192 L0.789622642,18.9275192 C0.353773585,18.9275192 0,19.2760769 0,19.7052212 C0,20.1346442 0.353773585,20.4832019 0.789622642,20.4832019 L2.36830189,20.4832019 L2.36830189,22.8165865 L0.789622642,22.8165865 C0.353773585,22.8165865 0,23.1651442 0,23.5942885 C0,24.0237115 0.353773585,24.3722692 0.789622642,24.3722692 L2.36830189,24.3722692 L2.36830189,28.0636346 C2.36830189,28.4927788 2.72207547,28.8413365 3.15792453,28.8413365 L9.66198113,28.8413365 L29.2106604,28.8413365 C29.6462264,28.8413365 30,28.4927788 30,28.0636346 L30,0.777980769 C30,0.348557692 29.6462264,0 29.2106604,0 L29.2106604,0 Z" id="Fill-1"></path>
                    <path d="M15.2730566,10.9801529 L17.3311698,12.0576144 C17.3402264,12.065701 17.349566,12.0732298 17.3591887,12.0810375 C17.5323962,12.219624 17.7624906,12.2695375 17.978434,12.2157202 C18.279566,12.1409894 19.0089057,12.0827106 19.4356981,12.0827106 C19.8624906,12.0827106 20.5918302,12.1409894 20.8929623,12.2157202 C21.1046604,12.2684221 21.3285283,12.210701 21.5006038,12.078249 L23.5983396,10.9801529 L23.6741887,15.4185471 C23.6829623,15.9397106 23.5935283,16.3986913 23.408717,16.7826625 C22.8474906,17.9482394 21.1023962,18.8614606 19.4356981,18.8614606 C18.054283,18.8614606 16.5135283,18.233499 15.8518302,17.4011433 C15.4173962,16.854326 15.1850377,16.1279317 15.1983396,15.3555279 L15.2730566,10.9801529 Z M19.4356981,20.2556913 C21.6763585,20.2556913 23.8850377,19.0463356 24.6873962,17.3802298 C24.9664528,16.8007875 25.1014528,16.1326721 25.089,15.395124 L25.0043774,10.4442106 L25.0043774,10.439749 C24.9964528,10.1079221 24.8382453,9.80147019 24.5707925,9.59958558 C24.3030566,9.39770096 23.9617358,9.32743173 23.634,9.40662404 C23.5773962,9.4202875 23.5224906,9.44092212 23.4709811,9.46797019 L20.9229623,10.8016913 C20.4356038,10.7247298 19.793434,10.6884798 19.4356981,10.6884798 C19.0779623,10.6884798 18.4357925,10.7247298 17.948434,10.8016913 L15.4004151,9.46797019 C15.3489057,9.44092212 15.294,9.4202875 15.2371132,9.40662404 C14.9090943,9.32715288 14.5683396,9.39770096 14.3008868,9.59958558 C14.0331509,9.80119135 13.8752264,10.1073644 13.8670189,10.4442106 L13.7835283,15.3321048 C13.7648491,16.4232298 14.1039057,17.463326 14.7378679,18.2605471 C15.6712642,19.435326 17.6031509,20.2556913 19.4356981,20.2556913 L19.4356981,20.2556913 Z" id="Fill-3"></path>
                </g>
            </g>
        </g>
    </g>
</svg>