<svg xmlns="http://www.w3.org/2000/svg" viewBox="0 0 76 74.16"><defs><style>.cls-1{fill-rule:evenodd;}</style></defs><title>Fichier 1</title><g id="Calque_2" data-name="Calque 2"><g id="Calque_1-2" data-name="Calque 1"><path class="cls-1" d="M74,0H8A2,2,0,0,0,6,2v8.67H2a2,2,0,0,0,0,4H6v6H2a2,2,0,0,0,0,4H6v24H2a2,2,0,0,0,0,4H6v6H2a2,2,0,0,0,0,4H6v9.49a2,2,0,0,0,2,2H74a2,2,0,0,0,2-2V2A2,2,0,0,0,74,0ZM22.48,70.16H10V62.67h4.33a2,2,0,0,0,0-4H10v-6h4.33a2,2,0,0,0,0-4H10v-24h4.33a2,2,0,0,0,0-4H10v-6h4.33a2,2,0,0,0,0-4H10V4H22.48Zm49.52,0H26.48V4H72Z"/><path class="cls-1" d="M49.65,52.66c6.38,0,12.67-3.45,14.95-8.19a12.43,12.43,0,0,0,1.15-5.65l-.24-14.1h0a3.15,3.15,0,0,0-3.9-2.94,2.38,2.38,0,0,0-.47.17l-7.25,3.8a28.18,28.18,0,0,0-8.47,0l-7.26-3.8a2.29,2.29,0,0,0-.46-.17,3.14,3.14,0,0,0-2.67.55,3.06,3.06,0,0,0-1.23,2.4l-.24,13.92A13,13,0,0,0,36.28,47C38.93,50.32,44.43,52.66,49.65,52.66ZM37.8,26.25l5.86,3.07.08.06a2,2,0,0,0,1.76.39,22.85,22.85,0,0,1,8.3,0,2.07,2.07,0,0,0,1.73-.39l6-3.13.22,12.64A8.57,8.57,0,0,1,61,42.77c-1.59,3.32-6.56,5.92-11.31,5.92-3.93,0-8.32-1.79-10.2-4.16a9.06,9.06,0,0,1-1.86-5.82Z"/></g></g></svg>