<?xml version="1.0" encoding="UTF-8"?>
<svg width="28px" height="33px" viewBox="0 0 28 33" version="1.1" xmlns="http://www.w3.org/2000/svg" xmlns:xlink="http://www.w3.org/1999/xlink">
    <!-- Generator: Sketch 47.1 (45422) - http://www.bohemiancoding.com/sketch -->
    <title>PAW</title>
    <desc>Created with Sketch.</desc>
    <defs></defs>
    <g id="Wireframes" stroke="none" stroke-width="1" fill="none" fill-rule="evenodd">
        <g id="Hector-Profile" transform="translate(-19.000000, -20.000000)" fill="#35C5A5">
            <path d="M33.0654771,48.3360619 C32.4964156,48.3360619 31.7485061,48.7024336 31.0168555,49.0688053 C30.0900981,49.5420354 29.1470817,50 28.2040654,50 C26.7245053,50 25.5538644,49.5267699 24.7409193,48.6413717 C23.960492,47.7865044 23.5540195,46.5652655 23.5540195,45.0387168 C23.5540195,42.7030973 24.5295536,39.6957965 26.4806218,37.5128319 C28.0414764,35.7420354 30.2364282,34.475 33.0654771,34.475 C35.8782672,34.475 38.0732189,35.7420354 39.6340735,37.5128319 C41.5851418,39.6957965 42.5606759,42.7030973 42.5606759,45.0387168 C42.5606759,46.5652655 42.1542033,47.7865044 41.373776,48.6413717 C40.5608309,49.5267699 39.39019,50 37.9106299,50 C36.9676136,50 36.0408562,49.5420354 35.1140988,49.0688053 C34.3661893,48.7024336 33.6182798,48.3360619 33.0654771,48.3360619 Z M36.0066564,24.319625 C36.7931388,23.4968 37.8417819,23 38.9887353,23 L39.1689708,23 C40.250384,23.0621 41.1843318,23.5589 41.8561188,24.319625 C42.4951357,25.064825 42.8719918,26.058425 42.8719918,27.1607 C42.8719918,27.2228 42.8719918,27.31595 42.8719918,27.424625 C42.8064516,28.604525 42.2985151,29.691275 41.5611879,30.467525 C40.7747056,31.274825 39.7260625,31.771625 38.5791091,31.771625 L38.3988735,31.771625 C37.3174603,31.709525 36.3835125,31.22825 35.7117256,30.452 C35.0727087,29.7068 34.6958525,28.7132 34.6958525,27.610925 C34.6958525,27.548825 34.6958525,27.4712 34.6958525,27.347 C34.7613927,26.1671 35.2693292,25.095875 36.0066564,24.319625 Z M27.437276,23 C28.5842294,23 29.6328725,23.4968 30.4193548,24.319625 C31.156682,25.095875 31.6646185,26.1671 31.7301587,27.347 C31.7301587,27.4712 31.7301587,27.548825 31.7301587,27.610925 C31.7301587,28.7132 31.3533026,29.7068 30.7142857,30.452 C30.0424987,31.22825 29.1085509,31.709525 28.0271377,31.771625 L27.8469022,31.771625 C26.6999488,31.771625 25.6513057,31.274825 24.8648233,30.467525 C24.1274962,29.691275 23.6195597,28.604525 23.5540195,27.424625 C23.5540195,27.31595 23.5540195,27.2228 23.5540195,27.1607 C23.5540195,26.058425 23.9308756,25.064825 24.5698925,24.319625 C25.2416795,23.5589 26.1756272,23.0621 27.2570405,23 L27.437276,23 Z M43.0358423,32.264375 C43.7076293,31.550225 44.625192,31.1 45.62468,31.1 L45.7885305,31.1 C46.7224782,31.146575 47.5417307,31.5968 48.1152074,32.2799 C48.672299,32.93195 49,33.80135 49,34.779425 L48.983615,35.0123 C48.9344598,36.03695 48.5084485,36.983975 47.8694316,37.667075 C47.1976446,38.39675 46.2800819,38.846975 45.280594,38.846975 L45.1167435,38.83145 C44.1827957,38.784875 43.3635433,38.350175 42.7900666,37.667075 C42.2329749,37.015025 41.9052739,36.1301 41.9052739,35.16755 L41.921659,34.934675 C41.9708141,33.8945 42.3968254,32.947475 43.0358423,32.264375 L43.0358423,32.264375 Z M20.37532,31.1 C21.374808,31.1 22.2923707,31.550225 22.9641577,32.264375 C23.6031746,32.947475 24.0291859,33.8945 24.078341,34.934675 L24.0947261,35.16755 C24.0947261,36.1301 23.7670251,37.015025 23.2099334,37.667075 C22.6364567,38.350175 21.8172043,38.784875 20.8832565,38.83145 L20.719406,38.846975 C19.7199181,38.846975 18.8023554,38.39675 18.1305684,37.667075 C17.4915515,36.983975 17.0655402,36.03695 17.016385,35.0123 L17,34.779425 C17,33.80135 17.327701,32.93195 17.8847926,32.2799 C18.4582693,31.5968 19.2775218,31.146575 20.2114695,31.1 L20.37532,31.1 Z" id="PAW" transform="translate(33.000000, 36.500000) rotate(-90.000000) translate(-33.000000, -36.500000) "></path>
        </g>
    </g>
</svg>