<?xml version="1.0" encoding="UTF-8"?>
<svg width="21px" height="31px" viewBox="0 0 21 31" version="1.1" xmlns="http://www.w3.org/2000/svg" xmlns:xlink="http://www.w3.org/1999/xlink">
    <!-- Generator: Sketch 47.1 (45422) - http://www.bohemiancoding.com/sketch -->
    <title>Page 1</title>
    <desc>Created with Sketch.</desc>
    <defs>
        <polygon id="path-1" points="20.8 -0.000147043069 20.8 30.8026 0.0002 30.8026 0.0002 -0.000147043069"></polygon>
    </defs>
    <g id="Wireframes" stroke="none" stroke-width="1" fill="none" fill-rule="evenodd">
        <g id="Dashboard-Menu" transform="translate(-304.000000, -461.000000)">
            <g id="MENU" transform="translate(85.000000, 279.000000)">
                <g id="Page-1" transform="translate(219.000000, 182.000000)">
                    <mask id="mask-2" fill="white">
                        <use xlink:href="#path-1"></use>
                    </mask>
                    <g id="Clip-2"></g>
                    <path d="M4.2422,11.747 C4.3772,11.813 4.5392,11.8 4.6602,11.711 L5.8062,10.863 L7.0542,12.71 C7.1522,12.856 7.3352,12.919 7.5022,12.869 C7.6702,12.817 7.7852,12.662 7.7852,12.486 L7.7852,7.712 L14.0742,10.331 L14.0742,28.014 L2.2812,23.392 L2.2812,5.677 L4.0222,6.234 L4.0222,11.39 C4.0222,11.541 4.1072,11.679 4.2422,11.747 M15.6262,8.487 L8.8642,5.705 L9.5372,5.143 C9.6472,5.051 9.7002,4.907 9.6752,4.767 C9.6502,4.626 9.5522,4.509 9.4172,4.46 L6.7952,3.51 C6.6772,3.465 6.5442,3.481 6.4392,3.552 L5.1662,4.389 L3.6022,3.79 L5.7072,2.396 L18.5182,7.413 L18.5182,26.116 L16.3552,27.531 L16.3552,9.553 C16.3552,9.078 16.0572,8.647 15.6262,8.487 M20.0602,5.56 L5.9692,0.069 C5.5842,-0.057 5.2042,-0.007 4.9582,0.188 L0.5362,3.1 C0.2002,3.289 0.0002,3.611 0.0002,3.959 L0.0002,24.176 C0.0002,24.651 0.2982,25.081 0.7362,25.243 L14.8152,30.728 C14.9572,30.782 15.0922,30.803 15.2142,30.803 C15.5662,30.803 15.8152,30.635 15.8422,30.615 L20.2862,27.69 C20.6172,27.473 20.8002,27.133 20.8002,26.734 L20.8002,6.628 C20.8002,6.153 20.5032,5.725 20.0602,5.56" id="Fill-1" fill="#FFFFFF" mask="url(#mask-2)"></path>
                </g>
            </g>
        </g>
    </g>
</svg>