<?xml version="1.0" encoding="UTF-8"?>
<svg width="33px" height="33px" viewBox="0 0 33 33" version="1.1" xmlns="http://www.w3.org/2000/svg" xmlns:xlink="http://www.w3.org/1999/xlink">
    <!-- Generator: Sketch 47.1 (45422) - http://www.bohemiancoding.com/sketch -->
    <title>Page 1</title>
    <desc>Created with Sketch.</desc>
    <defs>
        <polygon id="path-1" points="20.3983 33 0 33 0 0.5462 20.3983 0.5462 20.3983 33"></polygon>
        <polygon id="path-3" points="15.452 15.3415 15.452 0.544 0.6513 0.544 0.6513 15.3415 15.452 15.3415"></polygon>
    </defs>
    <g id="Wireframes" stroke="none" stroke-width="1" fill="none" fill-rule="evenodd">
        <g id="Dashboard-Menu" transform="translate(-298.000000, -516.000000)">
            <g id="MENU" transform="translate(85.000000, 279.000000)">
                <g id="Page-1" transform="translate(213.000000, 236.000000)">
                    <g id="Group-3" transform="translate(0.000000, 0.456100)">
                        <mask id="mask-2" fill="white">
                            <use xlink:href="#path-1"></use>
                        </mask>
                        <g id="Clip-2"></g>
                        <path d="M6.3753,26.6182 C0.9503,21.1882 0.9503,12.3552 6.3753,6.9262 C8.0943,5.2082 10.1893,3.9872 12.4983,3.3512 L12.4983,6.6722 C11.0453,7.2082 9.7143,8.0572 8.6083,9.1602 C4.4113,13.3572 4.4113,20.1862 8.6083,24.3842 C10.6203,26.3952 13.3283,27.5182 16.1473,27.5382 L17.2723,30.6532 C13.2473,30.9562 9.2563,29.4962 6.3753,26.6182 L6.3753,26.6182 Z M16.8603,25.2062 C14.4003,25.3862 11.9863,24.4982 10.2403,22.7532 C6.9423,19.4552 6.9423,14.0892 10.2393,10.7932 C11.2743,9.7612 12.5613,9.0112 13.9603,8.6232 L14.8053,8.3882 L14.8053,0.5462 L13.4573,0.7762 C10.1443,1.3452 7.1303,2.9072 4.7433,5.2952 C-1.5817,11.6232 -1.5817,21.9212 4.7443,28.2502 C7.8133,31.3162 11.9633,33.0002 16.2333,33.0002 C17.1683,33.0002 18.1103,32.9192 19.0473,32.7552 L20.3983,32.5162 L17.7353,25.1392 L16.8603,25.2062 Z" id="Fill-1" fill="#FFFFFF" mask="url(#mask-2)"></path>
                    </g>
                    <path d="M29.639,20.9522 C29.001,23.2612 27.782,25.3552 26.066,27.0702 C25.513,27.6242 24.914,28.1302 24.278,28.5832 L23.153,25.4652 C23.389,25.2652 23.616,25.0572 23.833,24.8402 C24.934,23.7382 25.784,22.4072 26.321,20.9522 L29.639,20.9522 Z M24.37,19.4892 C23.981,20.8912 23.231,22.1782 22.201,23.2092 C21.866,23.5442 21.501,23.8512 21.116,24.1252 L20.399,24.6322 L23.063,32.0152 L24.255,31.3342 C25.515,30.6132 26.673,29.7272 27.698,28.7022 C30.08,26.3192 31.642,23.3082 32.216,19.9942 L32.449,18.6432 L24.605,18.6432 L24.37,19.4892 Z" id="Fill-4" fill="#FFFFFF"></path>
                    <g id="Group-8" transform="translate(17.000000, 0.456100)">
                        <mask id="mask-4" fill="white">
                            <use xlink:href="#path-3"></use>
                        </mask>
                        <g id="Clip-7"></g>
                        <path d="M2.9593,3.3535 C5.2673,3.9915 7.3603,5.2085 9.0743,6.9225 C10.7873,8.6325 12.0053,10.7245 12.6433,13.0335 L9.3233,13.0335 C8.7843,11.5765 7.9363,10.2485 6.8403,9.1535 L6.8403,9.1525 C5.7453,8.0575 4.4173,7.2085 2.9593,6.6685 L2.9593,3.3535 Z M5.2093,10.7845 L5.2093,10.7855 C6.2323,11.8075 6.9813,13.0915 7.3753,14.4995 L7.6113,15.3415 L15.4523,15.3415 L15.2193,13.9915 C14.6463,10.6755 13.0853,7.6665 10.7063,5.2905 C8.3253,2.9105 5.3153,1.3495 2.0013,0.7775 L0.6513,0.5435 L0.6513,8.3815 L1.4943,8.6185 C2.9013,9.0115 4.1853,9.7605 5.2093,10.7845 L5.2093,10.7845 Z" id="Fill-6" fill="#FFFFFF" mask="url(#mask-4)"></path>
                    </g>
                </g>
            </g>
        </g>
    </g>
</svg>