<?xml version="1.0" encoding="UTF-8"?>
<svg width="49px" height="28px" viewBox="0 0 49 28" version="1.1" xmlns="http://www.w3.org/2000/svg" xmlns:xlink="http://www.w3.org/1999/xlink">
    <!-- Generator: Sketch 47.1 (45422) - http://www.bohemiancoding.com/sketch -->
    <title>PAW</title>
    <desc>Created with Sketch.</desc>
    <defs></defs>
    <g id="Wireframes" stroke="none" stroke-width="1" fill="none" fill-rule="evenodd">
        <g id="Dashboard-Menu" transform="translate(-156.000000, 0.000000)" fill="#FFFFFF">
            <path d="M180.600262,25.5349066 C179.728886,25.5349066 178.58365,26.0776794 177.46331,26.6204523 C176.044213,27.3215339 174.600219,28 173.156225,28 C170.890649,28 169.098105,27.2989184 167.853283,25.9872173 C166.658253,24.7207473 166.035842,22.9115044 166.035842,20.6499508 C166.035842,17.1897738 167.529629,12.7345133 170.517202,9.50049164 C172.907261,6.87708948 176.268281,5 180.600262,5 C184.907347,5 188.268366,6.87708948 190.658425,9.50049164 C193.645998,12.7345133 195.139785,17.1897738 195.139785,20.6499508 C195.139785,22.9115044 194.517374,24.7207473 193.322345,25.9872173 C192.077522,27.2989184 190.284978,28 188.019402,28 C186.575408,28 185.156311,27.3215339 183.737214,26.6204523 C182.591977,26.0776794 181.446741,25.5349066 180.600262,25.5349066 Z M185.103943,-10.045 C186.308244,-11.264 187.913978,-12 189.670251,-12 L189.946237,-12 C191.602151,-11.908 193.032258,-11.172 194.060932,-10.045 C195.039427,-8.941 195.616487,-7.469 195.616487,-5.836 C195.616487,-5.744 195.616487,-5.606 195.616487,-5.445 C195.516129,-3.697 194.738351,-2.087 193.609319,-0.937 C192.405018,0.259 190.799283,0.995 189.043011,0.995 L188.767025,0.995 C187.111111,0.903 185.681004,0.19 184.65233,-0.96 C183.673835,-2.064 183.096774,-3.536 183.096774,-5.169 C183.096774,-5.261 183.096774,-5.376 183.096774,-5.56 C183.197133,-7.308 183.97491,-8.895 185.103943,-10.045 Z M171.982079,-12 C173.738351,-12 175.344086,-11.264 176.548387,-10.045 C177.677419,-8.895 178.455197,-7.308 178.555556,-5.56 C178.555556,-5.376 178.555556,-5.261 178.555556,-5.169 C178.555556,-3.536 177.978495,-2.064 177,-0.96 C175.971326,0.19 174.541219,0.903 172.885305,0.995 L172.609319,0.995 C170.853047,0.995 169.247312,0.259 168.043011,-0.937 C166.913978,-2.087 166.136201,-3.697 166.035842,-5.445 C166.035842,-5.606 166.035842,-5.744 166.035842,-5.836 C166.035842,-7.469 166.612903,-8.941 167.591398,-10.045 C168.620072,-11.172 170.050179,-11.908 171.706093,-12 L171.982079,-12 Z M195.867384,1.725 C196.896057,0.667 198.301075,-1.77635684e-15 199.831541,-1.77635684e-15 L200.082437,-1.77635684e-15 C201.512545,0.069 202.767025,0.736 203.645161,1.748 C204.498208,2.714 205,4.002 205,5.451 L204.97491,5.796 C204.899642,7.314 204.247312,8.717 203.268817,9.729 C202.240143,10.81 200.835125,11.477 199.304659,11.477 L199.053763,11.454 C197.623656,11.385 196.369176,10.741 195.491039,9.729 C194.637993,8.763 194.136201,7.452 194.136201,6.026 L194.16129,5.681 C194.236559,4.14 194.888889,2.737 195.867384,1.725 L195.867384,1.725 Z M161.168459,0 C162.698925,0 164.103943,0.667 165.132616,1.725 C166.111111,2.737 166.763441,4.14 166.83871,5.681 L166.863799,6.026 C166.863799,7.452 166.362007,8.763 165.508961,9.729 C164.630824,10.741 163.376344,11.385 161.946237,11.454 L161.695341,11.477 C160.164875,11.477 158.759857,10.81 157.731183,9.729 C156.752688,8.717 156.100358,7.314 156.02509,5.796 L156,5.451 C156,4.002 156.501792,2.714 157.354839,1.748 C158.232975,0.736 159.487455,0.069 160.917563,-1.77635684e-15 L161.168459,0 Z" id="PAW" transform="translate(180.500000, 8.000000) rotate(-180.000000) translate(-180.500000, -8.000000) "></path>
        </g>
    </g>
</svg>