<?xml version="1.0" encoding="UTF-8"?>
<svg width="21px" height="33px" viewBox="0 0 21 33" version="1.1" xmlns="http://www.w3.org/2000/svg" xmlns:xlink="http://www.w3.org/1999/xlink">
    <!-- Generator: Sketch 47.1 (45422) - http://www.bohemiancoding.com/sketch -->
    <title>Fill 1</title>
    <desc>Created with Sketch.</desc>
    <defs></defs>
    <g id="Wireframes" stroke="none" stroke-width="1" fill="none" fill-rule="evenodd">
        <g id="Dashboard-Menu" transform="translate(-305.000000, -405.000000)" fill="#FFFFFF">
            <g id="MENU" transform="translate(85.000000, 279.000000)">
                <path d="M228.691552,148.566177 L228.691552,143.584177 L230.133552,142.808177 L231.575552,143.584177 L231.575552,148.566177 L228.691552,148.566177 Z M234.624552,143.129177 L230.193552,140.746177 L230.134552,140.714177 L225.644552,143.129177 L226.502552,138.014177 L222.865552,134.389177 L227.890552,133.643177 L230.134552,128.993177 L232.378552,133.643177 L237.403552,134.389177 L233.813552,137.968177 L233.768552,138.014177 L234.624552,143.129177 Z M232.442552,152.211177 C231.932552,152.211177 231.516552,152.627177 231.516552,153.137177 C231.516552,153.648177 231.932552,154.063177 232.442552,154.063177 L237.382552,154.063177 L237.382552,156.367177 L222.882552,156.367177 L222.882552,154.063177 L228.196552,154.063177 C228.707552,154.063177 229.123552,153.648177 229.123552,153.137177 C229.123552,152.627177 228.707552,152.211177 228.196552,152.211177 L224.878552,152.210177 L225.707552,150.420177 L234.548552,150.420177 L235.387552,152.210177 L232.442552,152.211177 Z M239.995552,133.087177 C239.856552,132.948177 239.671552,132.855177 239.477552,132.826177 L233.585552,131.950177 L230.966552,126.522177 C230.744552,126.065177 230.191552,125.870177 229.731552,126.091177 C229.543552,126.183177 229.390552,126.336177 229.299552,126.522177 L226.681552,131.950177 L220.789552,132.825177 C220.545552,132.861177 220.329552,132.991177 220.182552,133.189177 C220.034552,133.387177 219.973552,133.631177 220.010552,133.877177 C220.038552,134.071177 220.131552,134.255177 220.272552,134.395177 L224.548552,138.658177 L223.542552,144.657177 C223.458552,145.160177 223.798552,145.638177 224.301552,145.722177 C224.504552,145.756177 224.714552,145.720177 224.892552,145.625177 L226.874552,144.559177 L226.874552,148.565177 L225.372552,148.565177 C224.716552,148.565177 224.108552,148.947177 223.821552,149.537177 L222.521552,152.212177 C221.712552,152.253177 221.066552,152.924177 221.066552,153.744177 L221.066552,156.493177 C221.066552,157.444177 221.839552,158.218177 222.791552,158.218177 L237.474552,158.218177 C238.425552,158.218177 239.199552,157.444177 239.199552,156.493177 L239.199552,153.118177 C239.199552,152.617177 238.791552,152.210177 238.290552,152.210177 L237.742552,152.210177 L236.445552,149.539177 C236.159552,148.949177 235.550552,148.567177 234.894552,148.567177 L233.392552,148.567177 L233.392552,144.561177 L235.372552,145.627177 C235.591552,145.744177 235.840552,145.770177 236.077552,145.697177 C236.313552,145.627177 236.508552,145.467177 236.625552,145.250177 C236.721552,145.069177 236.756552,144.860177 236.722552,144.659177 L235.717552,138.660177 L239.994552,134.397177 C240.354552,134.037177 240.355552,133.449177 239.995552,133.087177 L239.995552,133.087177 Z" id="Fill-1"></path>
            </g>
        </g>
    </g>
</svg>