<?xml version="1.0" encoding="UTF-8"?>
<svg width="37px" height="30px" viewBox="0 0 37 30" version="1.1" xmlns="http://www.w3.org/2000/svg" xmlns:xlink="http://www.w3.org/1999/xlink">
    <!-- Generator: Sketch 47.1 (45422) - http://www.bohemiancoding.com/sketch -->
    <title>Page 1</title>
    <desc>Created with Sketch.</desc>
    <defs>
        <polygon id="path-1" points="20.4309254 0.386666667 0 0.386666667 0 17.3453333 20.4309254 17.3453333 20.4309254 0.386666667"></polygon>
    </defs>
    <g id="Wireframes" stroke="none" stroke-width="1" fill="none" fill-rule="evenodd">
        <g id="Dashboard-Menu" transform="translate(-294.000000, -358.000000)">
            <g id="MENU" transform="translate(85.000000, 279.000000)">
                <g id="Page-1" transform="translate(209.000000, 79.000000)">
                    <path d="M8.58612022,7.56491667 C8.58612022,6.85575 8.01033371,6.27866667 7.3031764,6.27866667 C6.59518764,6.27866667 6.01981685,6.85575 6.01981685,7.56491667 C6.01981685,8.27408333 6.59518764,8.85116667 7.3031764,8.85116667 C8.01033371,8.85116667 8.58612022,8.27408333 8.58612022,7.56491667" id="Fill-1" fill="#FFFFFF"></path>
                    <path d="M13.127891,6.27870833 C12.420318,6.27870833 11.8449472,6.85579167 11.8449472,7.56495833 C11.8449472,8.274125 12.420318,8.85120833 13.127891,8.85120833 C13.835464,8.85120833 14.4112506,8.274125 14.4112506,7.56495833 C14.4112506,6.85579167 13.835464,6.27870833 13.127891,6.27870833" id="Fill-3" fill="#FFFFFF"></path>
                    <path d="M12.7052596,12.5885 C12.4957315,12.2939167 12.0862371,12.2243333 11.7931472,12.43225 C11.4431022,12.6801667 11.2485404,12.69725 11.1920011,12.6718333 C11.1803607,12.6664167 11.1595742,12.6539167 11.132136,12.626 C11.8409562,12.406 12.2874506,11.9543333 12.2874506,11.43725 C12.2874506,10.6930833 11.3774169,10.10975 10.2154506,10.10975 C9.05348427,10.10975 8.14345056,10.6930833 8.14345056,11.43725 C8.14345056,11.9543333 8.59036067,12.4064167 9.2991809,12.626 C9.27382135,12.65225 9.25303483,12.6651667 9.23931573,12.6714167 C9.18319213,12.69725 8.98696742,12.67975 8.63775393,12.43225 C8.34341685,12.2239167 7.93392247,12.2943333 7.72522584,12.5889167 C7.51694494,12.8839167 7.58678764,13.2943333 7.88112472,13.5039167 C8.57830449,13.9989167 9.22975393,14.1201667 9.78600112,13.8643333 C9.9419,13.7926667 10.0857427,13.691 10.2154506,13.5605833 C10.3451584,13.691 10.4890011,13.7926667 10.6449,13.8643333 C10.834473,13.9514167 11.036518,13.9955833 11.2460461,13.9955833 C11.6509674,13.9955833 12.0899787,13.8301667 12.5493607,13.5035 C12.8436978,13.2943333 12.9139562,12.8839167 12.7056753,12.5889167 L12.7052596,12.5885 Z" id="Fill-5" fill="#FFFFFF"></path>
                    <path d="M33.8070247,23.380125 L31.453991,23.380125 L33.8984854,22.7309583 C33.8839348,22.951375 33.8531708,23.168875 33.8070247,23.380125 L33.8070247,23.380125 Z M33.1381146,24.956375 L31.517182,24.5259583 L33.3846427,24.5259583 C33.3069011,24.678875 33.225418,24.8209583 33.1381146,24.956375 L33.1381146,24.956375 Z M26.6918,28.0509583 C24.5088,28.0509583 22.4234966,27.2609583 21.0536652,25.9272083 L22.7128449,25.4867917 C22.8604292,25.447625 22.9843169,25.3530417 23.0608112,25.2209583 C23.1377213,25.0884583 23.1585079,24.9342917 23.1194292,24.786375 C23.0832607,24.6492917 22.9996989,24.5372083 22.8911933,24.4622083 C23.0749461,24.3667917 23.2009124,24.1742917 23.2009124,23.9530417 C23.2009124,23.7455417 23.0903281,23.5634583 22.9252831,23.4630417 C23.0487551,23.3880417 23.1427101,23.2672083 23.1817888,23.1197083 C23.2208674,22.9722083 23.2000809,22.817625 23.1235865,22.6855417 C23.0466764,22.5530417 22.9232045,22.4584583 22.7756202,22.4192917 L19.557036,21.5647083 C19.6252157,21.2272083 19.7399573,20.8830417 19.8979348,20.541375 C20.1087101,20.0859583 20.3889124,19.6584583 20.7293955,19.2709583 L20.8316652,19.1547083 L20.9023393,18.9384583 L20.7510135,18.901375 L20.9168899,18.890125 C21.2552944,17.5617917 22.2663506,16.3992917 23.6918899,15.7005417 C23.9338449,15.5822083 24.1978337,15.4742917 24.476373,15.3805417 C24.783182,15.2772083 25.1041258,15.1942917 25.4308899,15.135125 C26.2897888,14.9784583 27.0938112,14.9784583 27.9527101,15.135125 C28.278227,15.1942917 28.5991708,15.2767917 28.907227,15.3805417 C29.1857663,15.4747083 29.4497551,15.5822083 29.6917101,15.7005417 C31.1168337,16.3992917 32.1283056,17.5617917 32.4671258,18.8905417 L32.618036,18.8517917 L32.4812607,18.9384583 L32.5178449,19.0884583 L32.6542045,19.2705417 C32.9946876,19.6580417 33.2744742,20.0855417 33.4856652,20.5417917 C33.6440584,20.8830417 33.7583843,21.2267917 33.8269798,21.5647083 L30.6079798,22.4192917 C30.4603955,22.4584583 30.3365079,22.5530417 30.2600135,22.6855417 C30.1831034,22.817625 30.1623169,22.9722083 30.2018112,23.1197083 C30.2404742,23.2672083 30.3348449,23.3880417 30.4579011,23.4630417 C30.2928562,23.5634583 30.1826876,23.7455417 30.1826876,23.9530417 C30.1826876,24.1747083 30.3086539,24.3672083 30.4928225,24.462625 C30.3843169,24.5372083 30.3007551,24.6492917 30.2645865,24.786375 C30.2255079,24.933875 30.2462944,25.0884583 30.3227888,25.2205417 C30.3996989,25.3530417 30.5231708,25.447625 30.6707551,25.4867917 L32.3299348,25.9272083 C30.9601034,27.2609583 28.8752157,28.0509583 26.6918,28.0509583 L26.6918,28.0509583 Z M19.999373,24.5259583 L21.866418,24.5259583 L20.2454854,24.956375 C20.1585978,24.821375 20.0771146,24.678875 19.999373,24.5259583 L19.999373,24.5259583 Z M19.4855303,22.731375 L21.9291933,23.380125 L19.576991,23.380125 C19.5304292,23.168875 19.5000809,22.951375 19.4855303,22.731375 L19.4855303,22.731375 Z M21.8988449,14.9680417 C21.1176876,15.5334583 20.4787101,16.2297083 20.0230697,17.0105417 L19.7507663,14.017625 L21.8988449,14.9680417 Z M33.6328337,14.0172083 L33.3605303,17.0109583 C32.9048899,16.2297083 32.2659124,15.5330417 31.4847551,14.9680417 L33.6328337,14.0172083 Z M36.4265416,24.5259583 C36.7420809,24.5259583 36.9981708,24.268875 36.9981708,23.9530417 C36.9981708,23.6372083 36.7420809,23.380125 36.4265416,23.380125 L35.3863843,23.380125 C35.4441708,23.0392917 35.4724404,22.727625 35.4724404,22.4317917 C35.4724404,22.3922083 35.4707775,22.3534583 35.4686989,22.3142917 L36.3217775,22.087625 C36.4693618,22.048875 36.5928337,21.9542917 36.6697438,21.8217917 C36.7462382,21.6892917 36.7670247,21.535125 36.7279461,21.3872083 C36.6472944,21.082625 36.3346652,20.8992917 36.0291034,20.980125 L35.3364966,21.163875 C35.2117775,20.592625 34.9985079,20.030125 34.7008449,19.4892917 L35.249609,13.4555417 C35.2878562,13.028875 35.0824854,12.622625 34.7137326,12.395125 C34.3433169,12.1672083 33.8747888,12.1584583 33.5039573,12.366375 L29.7511596,14.0272083 C27.8067888,13.2672083 25.5768112,13.2672083 23.6324404,14.0272083 L19.8925303,12.3730417 C19.5088112,12.1580417 19.0398674,12.1672083 18.669036,12.3955417 C18.3006989,12.6230417 18.0957438,13.0292917 18.1344067,13.456375 L18.6831708,19.488875 C18.3850921,20.0297083 18.1718225,20.592625 18.0475191,21.163875 L17.3540809,20.980125 C17.0497663,20.9005417 16.7367213,21.0830417 16.6556539,21.3872083 C16.6161596,21.535125 16.6369461,21.6892917 16.7138562,21.8217917 C16.7903506,21.9542917 16.9142382,22.048875 17.0618225,22.087625 L17.9149011,22.3142917 C17.9128225,22.3534583 17.9111596,22.3922083 17.9111596,22.4317917 C17.9111596,22.727625 17.9394292,23.0392917 17.9976315,23.380125 L16.9570584,23.380125 C16.6419348,23.380125 16.3854292,23.6372083 16.3854292,23.9530417 C16.3854292,24.268875 16.6419348,24.5259583 16.9570584,24.5259583 L18.2994517,24.5259583 C18.4050472,24.8080417 18.5360022,25.0905417 18.6902382,25.3692917 L16.9986315,25.8184583 C16.8510472,25.8572083 16.7275753,25.9517917 16.6506652,26.083875 C16.5741708,26.216375 16.5533843,26.3705417 16.5924629,26.518875 C16.6718674,26.817625 16.9874067,27.0055417 17.2913056,26.9259583 L19.3653843,26.375125 C21.0016989,28.4047083 23.7318,29.6134583 26.6918,29.6134583 C29.6518,29.6134583 32.3819011,28.405125 34.0186315,26.3755417 L36.0927101,26.9259583 C36.3928674,27.0047083 36.7117326,26.817625 36.7907213,26.518875 C36.8298,26.3709583 36.8094292,26.2167917 36.7325191,26.0842917 C36.6560247,25.9517917 36.5321371,25.8572083 36.3845528,25.8184583 L34.6937775,25.3692917 C34.8475978,25.0905417 34.9785528,24.8080417 35.0841483,24.5259583 L36.4265416,24.5259583 Z" id="Fill-7" fill="#FFFFFF"></path>
                    <g id="Group-11" transform="translate(0.000000, 0.030125)">
                        <mask id="mask-2" fill="white">
                            <use xlink:href="#path-1"></use>
                        </mask>
                        <g id="Clip-10"></g>
                        <path d="M16.1027742,7.84991667 C15.9447966,8.4045 15.7032573,8.93116667 15.3848079,9.41491667 L15.248864,9.62241667 L15.2642461,10.0090833 C15.265909,10.03825 15.2679876,10.0678333 15.2679876,10.0978333 C15.2679876,13.2324167 13.0014258,15.7828333 10.2156169,15.7828333 C7.42980787,15.7828333 5.16324607,13.2324167 5.16324607,10.0978333 C5.16324607,10.067 5.16490899,10.037 5.1678191,9.98866667 L5.18236966,9.62283333 L5.04559438,9.4145 C4.72756067,8.93075 4.48560562,8.4045 4.32762809,7.84991667 L3.85120112,6.18158333 L2.23775169,8.71825 C2.17580787,8.81575 2.08226854,8.92616667 1.9816618,8.897 C1.84821236,8.85908333 1.64741461,8.64408333 1.64034719,8.20575 C1.62870674,7.48783333 1.60251573,6.81075 1.56218989,6.19366667 C1.45077416,4.45825 4.19750449,3.54783333 5.38358315,3.237 L5.49541461,3.20741667 L5.64133596,3.11575 C6.70061685,2.35241667 8.28247079,1.94908333 10.2156169,1.94908333 C12.1487629,1.94908333 13.7302011,2.35241667 14.789482,3.11575 L14.8838528,3.18325 L15.0472348,3.237 C16.2333135,3.54783333 18.9804596,4.45783333 18.8686281,6.19325 C18.8291337,6.7995 18.8029427,7.47658333 18.7900551,8.20575 L18.7900551,8.20616667 C18.7829876,8.64408333 18.5821899,8.85908333 18.4474933,8.89741667 C18.3464708,8.927 18.2545944,8.81575 18.1926506,8.71783333 L16.5783697,6.182 L16.1027742,7.84991667 Z M16.8265607,10.0540833 C16.8889202,9.95116667 16.9492011,9.84616667 17.0065719,9.73991667 C17.4800888,10.3474167 18.1781,10.5995 18.8732011,10.4003333 C19.7387517,10.1553333 20.3315831,9.28408333 20.3490438,8.23241667 C20.3615157,7.5245 20.3868753,6.87241667 20.424291,6.2945 C20.5535831,4.28658333 18.7879764,2.63533333 15.5781225,1.76158333 C14.2594258,0.862 12.4056843,0.386583333 10.2156169,0.386583333 C8.02513371,0.386583333 6.17180787,0.862 4.85269551,1.76158333 C1.6432573,2.63533333 -0.122349438,4.28658333 0.00652696629,6.29491667 C0.0447741573,6.88325 0.0701337079,7.53533333 0.081358427,8.232 C0.0988191011,9.28408333 0.692482022,10.15575 1.55844831,10.40075 C2.25479663,10.5974167 2.9532236,10.3449167 3.42424607,9.74033333 C3.48203258,9.84658333 3.54231348,9.95158333 3.60467303,10.0545 C3.60467303,10.0686667 3.6042573,10.08325 3.6042573,10.0978333 C3.6042573,14.0940833 6.57007753,17.3453333 10.2156169,17.3453333 C13.8611562,17.3453333 16.8269764,14.0940833 16.8269764,10.0978333 C16.8269764,10.08325 16.8265607,10.0686667 16.8265607,10.0540833 L16.8265607,10.0540833 Z" id="Fill-9" fill="#FFFFFF" mask="url(#mask-2)"></path>
                    </g>
                    <path d="M28.7218528,24.8543333 C28.4877966,24.58475 28.0749764,24.5535 27.8014258,24.7855833 C27.7249315,24.8505833 27.5819202,24.91725 27.5403472,24.9064167 C27.5187292,24.8980833 27.438909,24.8255833 27.3507742,24.606 L27.3507742,24.0055833 C27.4131337,23.951 27.4646843,23.8939167 27.506673,23.8318333 L27.5561449,23.75975 C27.7669202,23.451 27.7885382,23.06975 27.6147629,22.7389167 C27.4405719,22.4085 27.1142236,22.211 26.7413135,22.211 L26.6423697,22.211 C26.2694596,22.211 25.9426955,22.4085 25.7685045,22.7393333 C25.5951449,23.06975 25.6167629,23.451 25.8275382,23.7593333 L25.8770101,23.83225 C25.9194146,23.8943333 25.9701337,23.951 26.032909,24.006 L26.032909,24.606 C25.9447742,24.8251667 25.8649539,24.8980833 25.841673,24.9064167 C25.8021787,24.91725 25.6691449,24.8593333 25.5847517,24.7876667 C25.3141112,24.5518333 24.9008753,24.5789167 24.6647404,24.8480833 C24.5487517,24.9793333 24.4905494,25.1476667 24.5013584,25.3230833 C24.5121674,25.4976667 24.5903247,25.6580833 24.720864,25.7739167 C24.8044258,25.8485 25.251336,26.2193333 25.8379315,26.2193333 C25.954336,26.2193333 26.0707404,26.2043333 26.1829876,26.1739167 C26.3671562,26.1243333 26.5380213,26.03475 26.6918416,25.9064167 C26.8456618,26.03475 27.0161112,26.1243333 27.2006955,26.1739167 C27.3133584,26.2043333 27.4297629,26.2193333 27.5461674,26.2193333 C28.1286056,26.2193333 28.5780101,25.8493333 28.6628191,25.7743333 C28.9293022,25.5380833 28.9554933,25.1255833 28.7218528,24.85475 L28.7218528,24.8543333 Z" id="Fill-12" fill="#FFFFFF"></path>
                    <path d="M30.9911169,20.753 C31.0609596,20.7775833 31.1341281,20.7896667 31.2077124,20.7896667 C31.4850045,20.7896667 31.7336112,20.6138333 31.8259034,20.35175 C31.945218,20.0105 31.7660382,19.6350833 31.4259708,19.5150833 C30.9150382,19.3338333 29.1756225,18.7905 28.2547798,19.3971667 C28.108027,19.4934167 28.0082517,19.6409167 27.9724989,19.8125833 C27.9371618,19.98425 27.9704202,20.15925 28.0664539,20.3055 C28.1624876,20.4525833 28.3104876,20.553 28.4821843,20.5884167 C28.6530494,20.6238333 28.8276562,20.5900833 28.9731618,20.4938333 C29.2242629,20.3275833 30.264836,20.4963333 30.9907011,20.753 L30.9911169,20.753 Z" id="Fill-14" fill="#FFFFFF"></path>
                    <path d="M24.9025382,20.588375 C25.0738191,20.5529583 25.2209876,20.452125 25.3170213,20.305875 C25.4130551,20.159625 25.4463135,19.9842083 25.4109764,19.8125417 C25.3752236,19.640875 25.2754483,19.493375 25.1291112,19.397125 C24.1837404,18.774625 22.3212685,19.385875 21.9575045,19.514625 C21.7924596,19.5729583 21.6602573,19.6925417 21.5845944,19.8504583 C21.5089315,20.008375 21.4993697,20.1867083 21.5579876,20.3517083 C21.649864,20.6142083 21.8980551,20.7900417 22.1753472,20.7900417 C22.2497629,20.7900417 22.3229315,20.7775417 22.3931899,20.7525417 C23.1182236,20.495875 24.1575494,20.3279583 24.409482,20.4937917 C24.5562348,20.5904583 24.7308416,20.6237917 24.9025382,20.588375" id="Fill-16" fill="#FFFFFF"></path>
                </g>
            </g>
        </g>
    </g>
</svg>