<?xml version="1.0" encoding="UTF-8"?>
<svg width="29px" height="32px" viewBox="0 0 29 32" version="1.1" xmlns="http://www.w3.org/2000/svg" xmlns:xlink="http://www.w3.org/1999/xlink">
    <!-- Generator: Sketch 47.1 (45422) - http://www.bohemiancoding.com/sketch -->
    <title>Group 8</title>
    <desc>Created with Sketch.</desc>
    <defs></defs>
    <g id="Guidelines" stroke="none" stroke-width="1" fill="none" fill-rule="evenodd">
        <g id="Menu-Patte" transform="translate(-31.000000, -346.000000)" stroke-width="0.4" stroke="#4A4A4A" fill="#4A4A4A" fill-rule="nonzero">
            <g id="MY-PROFILE" transform="translate(32.000000, 347.000000)">
                <g id="Group-8">
                    <path d="M0.666689184,30 C0.298676755,30 0,29.7013073 0,29.3332753 C0,25.3169259 5.58685536,22.2539928 9.51498804,22.0153053 L10.7016948,18.4549956 C10.8176987,18.1069653 11.192378,17.9189489 11.5443899,18.0336256 C11.893735,18.153636 12.0817414,18.5283353 11.9657375,18.8803659 L10.6323591,22.8807139 C10.5416894,23.1514042 10.2870141,23.3354202 10.0003378,23.3354202 C6.65755819,23.3354202 1.33337837,26.0836593 1.33337837,29.3359422 C1.33337837,29.7013073 1.03470161,30 0.666689184,30 Z" id="Shape"></path>
                    <path d="M26.3333494,30 C25.9666916,30 25.6666988,29.7013761 25.6666988,29.3334287 C25.6666988,26.0818941 20.3428272,23.3342874 17.0002411,23.3342874 C16.7135813,23.3342874 16.4589208,23.1503138 16.366923,22.8783527 L15.0336218,18.8789251 C14.9189579,18.5296418 15.1069534,18.1523625 15.454945,18.0350459 C15.8069365,17.9163962 16.1815942,18.1097019 16.2989247,18.4536527 L17.4855627,22.0131432 C21.4108014,22.2557751 27,25.3180035 27,29.3294293 C27,29.7013761 26.7000072,30 26.3333494,30 L26.3333494,30 Z" id="Shape"></path>
                    <path d="M13.9988016,20 C6.42322867,20 3.7160031,15.6354181 3.06766658,14.2979064 C2.96931613,14.0978797 2.97837472,13.8525137 3.09354828,13.6591546 C3.70694451,12.6030137 5.35431456,9.62128284 5.60666111,8.5144686 C6.84639443,3.10308041 9.90561108,0 14.0013897,0 C18.0971684,0 21.156385,3.10308041 22.3961183,8.5144686 C22.6484649,9.62261635 24.2958349,12.6043472 24.9079371,13.6591546 C25.0218165,13.8538472 25.0295811,14.0965462 24.9338188,14.2979064 C24.2816,15.6354181 21.5743744,20 13.9988016,20 Z M4.38892724,14.015202 C5.18220127,15.4327244 7.69272594,18.6664889 13.9988016,18.6664889 C20.3048772,18.6664889 22.8154018,15.4287238 23.6086759,14.015202 C23.0302199,12.9990665 21.4320251,10.122683 21.1343856,8.81984265 C20.6180457,6.56887585 18.8904424,1.33217762 13.9988016,1.33217762 C9.10716071,1.33217762 7.3795574,6.56887585 6.86451161,8.81984265 C6.56557801,10.122683 4.96738318,12.9990665 4.38892724,14.015202 L4.38892724,14.015202 Z" id="Shape"></path>
                </g>
            </g>
        </g>
    </g>
</svg>