<?xml version="1.0" encoding="UTF-8"?>
<svg width="8px" height="16px" viewBox="0 0 8 16" version="1.1" xmlns="http://www.w3.org/2000/svg" xmlns:xlink="http://www.w3.org/1999/xlink">
    <!-- Generator: Sketch 47.1 (45422) - http://www.bohemiancoding.com/sketch -->
    <title>Shape</title>
    <desc>Created with Sketch.</desc>
    <defs></defs>
    <g id="Wireframes" stroke="none" stroke-width="1" fill="none" fill-rule="evenodd">
        <g id="Dashboard" transform="translate(-328.000000, -1135.000000)" fill="#35C5A5">
            <g id="SLEEP" transform="translate(20.000000, 1135.000000)">
                <path d="M315.611859,0.254158438 L315.611859,0.254158438 L315.611859,0.254158438 C315.314378,-0.0644091455 314.814971,-0.0815027723 314.496403,0.215978754 C314.487041,0.224721481 314.477893,0.233690858 314.468967,0.24287891 L308.358821,6.53254463 L308.358821,6.53254463 C307.888175,7.01701839 307.874971,7.7838158 308.328659,8.28420595 L314.489771,15.0795484 L314.489771,15.0795484 C314.772607,15.3914996 315.254777,15.4151023 315.566729,15.1322664 C315.582382,15.1180741 315.597438,15.1032373 315.611859,15.0877944 L315.611859,15.0877944 L315.611859,15.0877944 C315.931726,14.7452542 315.9363,14.2149162 315.622389,13.8669099 L309.783837,7.39422099 L315.597894,1.45202983 L315.597894,1.45202983 C315.92208,1.12069916 315.928232,0.592956983 315.611859,0.254158438 Z" id="Shape" transform="translate(311.925874, 7.666728) scale(-1, 1) translate(-311.925874, -7.666728) "></path>
            </g>
        </g>
    </g>
</svg>